HIERARCHY
ROOT Hips
{
  OFFSET -28.535 97.2468 142.275
  CHANNELS 6 Xposition Yposition Zposition Zrotation Xrotation Yrotation
  JOINT LeftUpLeg
  {
    OFFSET 8.91 -6.27 -2.145
    CHANNELS 3 Zrotation Xrotation Yrotation
    JOINT LeftUpLegRoll
    {
      OFFSET 0 -22.7323 0
      CHANNELS 3 Zrotation Xrotation Yrotation
      JOINT LeftLeg
      {
        OFFSET 0 -22.1464 0
        CHANNELS 3 Zrotation Xrotation Yrotation
        JOINT LeftLegRoll
        {
          OFFSET 0 -22.0919 0
          CHANNELS 3 Zrotation Xrotation Yrotation
          JOINT LeftFoot
          {
            OFFSET 0 -18.609 0
            CHANNELS 3 Zrotation Xrotation Yrotation
            JOINT LeftToeBase
            {
              OFFSET 0 -6.26232 12.9547
              CHANNELS 3 Zrotation Xrotation Yrotation
              End Site
              {
                OFFSET 0 0 5.96686
              }
            }
          }
        }
      }
    }
  }
  JOINT RightUpLeg
  {
    OFFSET -8.91 -6.27 -2.145
    CHANNELS 3 Zrotation Xrotation Yrotation
    JOINT RightUpLegRoll
    {
      OFFSET 0 -22.7323 0
      CHANNELS 3 Zrotation Xrotation Yrotation
      JOINT RightLeg
      {
        OFFSET 0 -22.1464 0
        CHANNELS 3 Zrotation Xrotation Yrotation
        JOINT RightLegRoll
        {
          OFFSET 0 -22.0919 0
          CHANNELS 3 Zrotation Xrotation Yrotation
          JOINT RightFoot
          {
            OFFSET 0 -18.609 0
            CHANNELS 3 Zrotation Xrotation Yrotation
            JOINT RightToeBase
            {
              OFFSET 0 -6.26232 12.9547
              CHANNELS 3 Zrotation Xrotation Yrotation
              End Site
              {
                OFFSET 0 0.000942417 5.96686
              }
            }
          }
        }
      }
    }
  }
  JOINT Spine
  {
    OFFSET 0 7.43174 -2.06162
    CHANNELS 3 Zrotation Xrotation Yrotation
    JOINT Spine1
    {
      OFFSET -1.68772e-005 12.1899 -1.41951
      CHANNELS 3 Zrotation Xrotation Yrotation
      JOINT Spine2
      {
        OFFSET 0 11.8846 -1.0903
        CHANNELS 3 Zrotation Xrotation Yrotation
        JOINT Spine3
        {
          OFFSET 1.84329e-005 10.5137 1.04001
          CHANNELS 3 Zrotation Xrotation Yrotation
          JOINT LeftShoulder
          {
            OFFSET 7 4.56855 2.0674
            CHANNELS 3 Zrotation Xrotation Yrotation
            JOINT LeftArm
            {
              OFFSET 10.7073 0 0
              CHANNELS 3 Zrotation Xrotation Yrotation
              JOINT LeftArmRoll
              {
                OFFSET 15.2612 0 0
                CHANNELS 3 Zrotation Xrotation Yrotation
                JOINT LeftForeArm
                {
                  OFFSET 12.0443 0 0
                  CHANNELS 3 Zrotation Xrotation Yrotation
                  JOINT LeftForeArmRoll
                  {
                    OFFSET 16.3277 0 0
                    CHANNELS 3 Zrotation Xrotation Yrotation
                    JOINT LeftHand
                    {
                      OFFSET 10.3694 0 0
                      CHANNELS 3 Zrotation Xrotation Yrotation
                      JOINT LeftHandThumb1
                      {
                        OFFSET 4.34876 -0.798502 4.28243
                        CHANNELS 3 Zrotation Xrotation Yrotation
                        JOINT LeftHandThumb2
                        {
                          OFFSET 2.51259 -0.536099 0.707454
                          CHANNELS 3 Zrotation Xrotation Yrotation
                          JOINT LeftHandThumb3
                          {
                            OFFSET 2.54314 0 0
                            CHANNELS 3 Zrotation Xrotation Yrotation
                            JOINT LeftHandThumb4
                            {
                              OFFSET 2.66675 0 0
                              CHANNELS 3 Zrotation Xrotation Yrotation
                              End Site
                              {
                                OFFSET 1 0 0
                              }
                            }
                          }
                        }
                      }
                      JOINT LeftHandIndex1
                      {
                        OFFSET 8.82198 0.199729 3.47167
                        CHANNELS 3 Zrotation Xrotation Yrotation
                        JOINT LeftHandIndex2
                        {
                          OFFSET 4.22532 0 -0.000262656
                          CHANNELS 3 Zrotation Xrotation Yrotation
                          JOINT LeftHandIndex3
                          {
                            OFFSET 2.65394 0 -0.00016516
                            CHANNELS 3 Zrotation Xrotation Yrotation
                            JOINT LeftHandIndex4
                            {
                              OFFSET 1.95822 0 -0.00012217
                              CHANNELS 3 Zrotation Xrotation Yrotation
                              End Site
                              {
                                OFFSET 1 0 0
                              }
                            }
                          }
                        }
                      }
                      JOINT LeftHandMiddle1
                      {
                        OFFSET 8.80988 0.50089 1.30468
                        CHANNELS 3 Zrotation Xrotation Yrotation
                        JOINT LeftHandMiddle2
                        {
                          OFFSET 4.86325 0 0
                          CHANNELS 3 Zrotation Xrotation Yrotation
                          JOINT LeftHandMiddle3
                          {
                            OFFSET 2.76524 0 0
                            CHANNELS 3 Zrotation Xrotation Yrotation
                            JOINT LeftHandMiddle4
                            {
                              OFFSET 2.00563 0 0
                              CHANNELS 3 Zrotation Xrotation Yrotation
                              End Site
                              {
                                OFFSET 1 0 0
                              }
                            }
                          }
                        }
                      }
                      JOINT LeftHandRing1
                      {
                        OFFSET 8.89376 0.37992 -0.793159
                        CHANNELS 3 Zrotation Xrotation Yrotation
                        JOINT LeftHandRing2
                        {
                          OFFSET 4.53776 0 -0.000282138
                          CHANNELS 3 Zrotation Xrotation Yrotation
                          JOINT LeftHandRing3
                          {
                            OFFSET 2.30453 0 -0.000143448
                            CHANNELS 3 Zrotation Xrotation Yrotation
                            JOINT LeftHandRing4
                            {
                              OFFSET 1.92335 0 -0.00012044
                              CHANNELS 3 Zrotation Xrotation Yrotation
                              End Site
                              {
                                OFFSET 1 0 0
                              }
                            }
                          }
                        }
                      }
                      JOINT LeftHandPinky1
                      {
                        OFFSET 8.88227 -0.313027 -2.49036
                        CHANNELS 3 Zrotation Xrotation Yrotation
                        JOINT LeftHandPinky2
                        {
                          OFFSET 3.0441 0 0
                          CHANNELS 3 Zrotation Xrotation Yrotation
                          JOINT LeftHandPinky3
                          {
                            OFFSET 1.9745 0 0
                            CHANNELS 3 Zrotation Xrotation Yrotation
                            JOINT LeftHandPinky4
                            {
                              OFFSET 1.66661 0 0
                              CHANNELS 3 Zrotation Xrotation Yrotation
                              End Site
                              {
                                OFFSET 1 0 0
                              }
                            }
                          }
                        }
                      }
                    }
                  }
                }
              }
            }
          }
          JOINT RightShoulder
          {
            OFFSET -7 4.56855 2.0673
            CHANNELS 3 Zrotation Xrotation Yrotation
            JOINT RightArm
            {
              OFFSET -10.7073 0 0
              CHANNELS 3 Zrotation Xrotation Yrotation
              JOINT RightArmRoll
              {
                OFFSET -15.2612 0 0
                CHANNELS 3 Zrotation Xrotation Yrotation
                JOINT RightForeArm
                {
                  OFFSET -12.0444 0 0
                  CHANNELS 3 Zrotation Xrotation Yrotation
                  JOINT RightForeArmRoll
                  {
                    OFFSET -16.3276 0 0
                    CHANNELS 3 Zrotation Xrotation Yrotation
                    JOINT RightHand
                    {
                      OFFSET -10.3694 0 0
                      CHANNELS 3 Zrotation Xrotation Yrotation
                      JOINT RightHandThumb1
                      {
                        OFFSET -4.34838 -0.798501 4.28282
                        CHANNELS 3 Zrotation Xrotation Yrotation
                        JOINT RightHandThumb2
                        {
                          OFFSET -2.51253 -0.536099 0.707679
                          CHANNELS 3 Zrotation Xrotation Yrotation
                          JOINT RightHandThumb3
                          {
                            OFFSET -2.54159 0 0.0888232
                            CHANNELS 3 Zrotation Xrotation Yrotation
                            JOINT RightHandThumb4
                            {
                              OFFSET -2.66512 0 0.0931403
                              CHANNELS 3 Zrotation Xrotation Yrotation
                              End Site
                              {
                                OFFSET 1 0 0
                              }
                            }
                          }
                        }
                      }
                      JOINT RightHandIndex1
                      {
                        OFFSET -8.82167 0.199732 3.47246
                        CHANNELS 3 Zrotation Xrotation Yrotation
                        JOINT RightHandIndex2
                        {
                          OFFSET -4.22532 0 0.0001146
                          CHANNELS 3 Zrotation Xrotation Yrotation
                          JOINT RightHandIndex3
                          {
                            OFFSET -2.65394 0 7.19601e-005
                            CHANNELS 3 Zrotation Xrotation Yrotation
                            JOINT RightHandIndex4
                            {
                              OFFSET -1.95822 0 5.30956e-005
                              CHANNELS 3 Zrotation Xrotation Yrotation
                              End Site
                              {
                                OFFSET 1 0 0
                              }
                            }
                          }
                        }
                      }
                      JOINT RightHandMiddle1
                      {
                        OFFSET -8.80976 0.500893 1.30547
                        CHANNELS 3 Zrotation Xrotation Yrotation
                        JOINT RightHandMiddle2
                        {
                          OFFSET -4.86325 0 0.000131881
                          CHANNELS 3 Zrotation Xrotation Yrotation
                          JOINT RightHandMiddle3
                          {
                            OFFSET -2.76524 0 7.49854e-005
                            CHANNELS 3 Zrotation Xrotation Yrotation
                            JOINT RightHandMiddle4
                            {
                              OFFSET -2.00563 0 5.43888e-005
                              CHANNELS 3 Zrotation Xrotation Yrotation
                              End Site
                              {
                                OFFSET 1 0 0
                              }
                            }
                          }
                        }
                      }
                      JOINT RightHandRing1
                      {
                        OFFSET -8.89383 0.379922 -0.792364
                        CHANNELS 3 Zrotation Xrotation Yrotation
                        JOINT RightHandRing2
                        {
                          OFFSET -4.53776 0 0.000123049
                          CHANNELS 3 Zrotation Xrotation Yrotation
                          JOINT RightHandRing3
                          {
                            OFFSET -2.30453 0 6.24859e-005
                            CHANNELS 3 Zrotation Xrotation Yrotation
                            JOINT RightHandRing4
                            {
                              OFFSET -1.92335 0 5.21537e-005
                              CHANNELS 3 Zrotation Xrotation Yrotation
                              End Site
                              {
                                OFFSET 1 0 0
                              }
                            }
                          }
                        }
                      }
                      JOINT RightHandPinky1
                      {
                        OFFSET -8.8825 -0.313025 -2.48956
                        CHANNELS 3 Zrotation Xrotation Yrotation
                        JOINT RightHandPinky2
                        {
                          OFFSET -3.0478 0 8.26466e-005
                          CHANNELS 3 Zrotation Xrotation Yrotation
                          JOINT RightHandPinky3
                          {
                            OFFSET -1.9769 0 5.36145e-005
                            CHANNELS 3 Zrotation Xrotation Yrotation
                            JOINT RightHandPinky4
                            {
                              OFFSET -1.66864 0 4.5245e-005
                              CHANNELS 3 Zrotation Xrotation Yrotation
                              End Site
                              {
                                OFFSET 1 0 0
                              }
                            }
                          }
                        }
                      }
                    }
                  }
                }
              }
            }
          }
          JOINT Neck
          {
            OFFSET 0 11.5156 1.94702
            CHANNELS 3 Zrotation Xrotation Yrotation
            JOINT Head
            {
              OFFSET -1.26215e-005 11.0733 1.65432
              CHANNELS 3 Zrotation Xrotation Yrotation
              End Site
              {
                OFFSET 0 17.7047 0
              }
            }
          }
        }
      }
    }
  }
}
MOTION
Frames:	7
Frame Time:	0.0416667
-28.535 97.2468 142.275 0.500945 2.55689 -0.355277 -0.292849 -18.038 -0.652422 2.07741e-021 3.81786e-018 -0.0623525 5.95945e-008 33.3289 0.813123 4.7972e-021 5.80167e-018 -0.0947517 1.75191 -14.4384 0.22193 -4.29059e-007 -1.04696e-007 -7.84019e-016 -4.2015 -15.8008 -3.88692 6.84019e-020 2.19074e-017 -0.35779 -3.72521e-007 30.7083 6.28661 4.67129e-023 5.72503e-019 -0.00935 1.50344 -15.8548 0.204726 0.00291259 9.13909e-008 -4.6458e-012 0.0213834 -0.0896002 0.140538 -0.197802 0.0347856 0.108277 -0.190615 0.0350383 0.109069 -0.188982 0.0352932 0.108994 -13.008 0 -7.15527 -51.3355 9.79603 -4.6527 -0 1.34465 0 43.2561 43.2222 -53.9513 -0 0.56754 0 -16.8434 1.32142 -8.90767 -11.3353 5.42235 10.9137 -30.5028 -1.01547 1.72312 -26.1476 0 0 -0 0 0 -29.7915 -0.993994 0.607552 -112.622 0 0 -52.9585 0 0 -0 0 0 -33.0931 -1.09231 5.26058 -111.158 0 0 -50.9269 0 0 -0 0 0 -32.0559 -1.0618 0.629387 -103.21 0 0 -43.5644 0 0 -0 0 0 -5.9451 -0.207234 4.09881 -96.3249 0 0 -38.1985 0 0 -0 0 0 19.374 1.00392e-015 10.5357 50.5879 5.15351 2.9142 3.13576e-016 2.55892 -7.00357e-018 -36.3362 40.2045 48.7297 -7.43682e-006 0.572376 -2.70892e-006 15.6134 -0.336186 -2.45167 11.331 5.42212 -10.9131 29.2193 -0.97661 -1.74543 24.8369 0 0 0 0 -0 29.7912 -0.993986 -0.605762 112.622 0 0 52.9584 0 0 0 0 -0 33.0111 -1.08992 -3.26718 111.073 0 0 51.0729 0 0 0 0 -0 32.4514 -1.07348 1.33472 102.94 0 0 43.1189 0 0 0 0 -0 5.87599 -0.204834 -2.10028 96.0519 0 0 38.4021 0 0 0 0 -0 -3.23533 -3.33093 0.972471 5.8047 -6.37182 -0.906174 
-28.5686 97.3002 142.458 0.440512 2.45745 -0.144664 -0.17135 -18.0888 -0.507999 1.4921e-021 3.27051e-018 -0.0534133 -0.000146994 33.8001 0.463196 4.90246e-021 5.86576e-018 -0.0957984 2.09062 -14.5077 0.266143 -4.29059e-007 -1.04696e-007 -7.84019e-016 -4.04058 -15.1361 -3.75471 6.63063e-020 2.15707e-017 -0.352291 7.47538e-005 29.8537 5.90907 3.48822e-023 -4.28574e-019 0.00699938 1.40942 -15.474 0.186975 0.0293333 -0.019122 4.3858e-005 0.01778 -0.263464 0.123309 -0.196127 0.018499 0.0899181 -0.193886 0.0187146 0.0906704 -0.193708 0.0189286 0.0912595 -12.7908 0 -7.41445 -51.7233 9.71027 -4.09645 -0 1.34465 0 42.7628 43.1268 -53.5281 -0 0.542484 0 -15.8093 1.1398 -8.18984 -11.3353 5.42235 10.9137 -30.5178 -1.01592 1.72285 -26.2457 0 0 -0 0 0 -29.8264 -0.995051 0.607773 -112.753 0 0 -53.037 0 0 -0 0 0 -33.1392 -1.09366 5.26616 -111.292 0 0 -50.936 0 0 -0 0 0 -32.1005 -1.06312 0.623497 -103.333 0 0 -43.6037 0 0 -0 0 0 -5.9451 -0.207234 4.09042 -96.4444 0 0 -38.244 0 0 -0 0 0 19.4098 9.98358e-016 10.5068 50.3766 4.8873 2.22908 3.1563e-016 2.57567 -7.09555e-018 -36.3347 40.6501 48.4687 -7.43586e-006 0.592876 -2.70893e-006 16.9705 -0.244893 -1.64202 11.331 5.42212 -10.9131 29.2193 -0.97661 -1.74543 24.8369 0 0 0 0 -0 29.7912 -0.993986 -0.605762 112.622 0 0 52.9584 0 0 0 0 -0 33.0111 -1.08992 -3.26718 111.073 0 0 51.0729 0 0 0 0 -0 32.4514 -1.07348 1.33472 102.94 0 0 43.1189 0 0 0 0 -0 5.87599 -0.204834 -2.10028 96.0519 0 0 38.4021 0 0 0 0 -0 -2.97445 -2.05615 0.876116 5.61002 -7.05385 -0.893018 
-28.6294 97.2954 142.6 0.315839 2.59269 0.0222147 0.0784873 -18.3066 -0.246387 3.6308e-022 1.59292e-018 -0.0260153 0.000174178 34.1047 0.0566678 5.84676e-021 6.40252e-018 -0.104565 2.1976 -14.7093 0.283679 -4.29059e-007 -1.04696e-007 -7.84019e-016 -3.76675 -15.0158 -3.59371 6.00769e-020 2.053e-017 -0.335293 -0.000186344 29.5096 5.44665 3.34114e-023 -4.19527e-019 0.00685162 1.15437 -15.1436 0.148736 0.110994 -0.0782263 0.000144978 0.0454688 -0.52335 0.168874 -0.198975 -0.0177342 0.122624 -0.198667 -0.0174116 0.12375 -0.198004 -0.0170938 0.124904 -12.7727 0 -7.4135 -51.7158 9.80872 -3.95288 -0 1.34116 0 42.9239 43.3817 -53.5531 -0 0.578642 0 -14.7971 0.900412 -6.92685 -11.3353 5.42235 10.9137 -30.5614 -1.01723 1.72208 -26.5318 0 0 -0 0 0 -29.9273 -0.998105 0.613843 -113.131 0 0 -53.2641 0 0 -0 0 0 -33.2726 -1.09756 5.28228 -111.679 0 0 -50.9623 0 0 -0 0 0 -32.2296 -1.06694 0.606454 -103.689 0 0 -43.7174 0 0 -0 0 0 -5.9451 -0.207234 4.06614 -96.7903 0 0 -38.3757 0 0 -0 0 0 19.6349 9.44121e-016 10.1911 49.7999 4.66276 1.59802 3.17288e-016 2.58917 -7.1705e-018 -36.361 41.1237 48.2243 -7.43532e-006 0.604232 -2.70893e-006 17.3431 -0.185164 -1.21198 11.331 5.42212 -10.9131 29.2193 -0.97661 -1.74543 24.8369 0 0 0 0 -0 29.7912 -0.993986 -0.605762 112.622 0 0 52.9584 0 0 0 0 -0 33.0111 -1.08992 -3.26718 111.073 0 0 51.0729 0 0 0 0 -0 32.4514 -1.07348 1.33472 102.94 0 0 43.1189 0 0 0 0 -0 5.87599 -0.204834 -2.10028 96.0519 0 0 38.4021 0 0 0 0 -0 -2.81487 -1.2222 0.829336 5.71415 -7.24796 -0.919078 
-28.6197 97.2797 142.727 0.235425 2.54798 0.0392745 0.15326 -18.0624 -0.205278 7.5664e-023 6.5518e-019 -0.0107003 9.43427e-005 33.9231 0.0631366 7.74704e-021 7.37867e-018 -0.120507 2.09558 -14.9034 0.274098 -4.29059e-007 -1.04696e-007 -7.84019e-016 -3.66557 -14.9069 -3.48949 5.33029e-020 1.93408e-017 -0.315872 -4.79483e-005 29.5833 5.28323 3.10105e-023 5.98643e-019 -0.0097769 1.34415 -15.3438 0.176517 0.167222 -0.118917 0.000340785 0.107377 -0.588818 0.234861 -0.207702 0.0143818 0.177442 -0.20655 0.0149502 0.178791 -0.205394 0.0155111 0.180133 -13.0751 0 -7.00557 -51.3947 9.82952 -4.23156 -0 1.32775 0 42.2979 43.2254 -53.0306 -0 0.580197 0 -14.4708 0.834991 -6.57204 -11.3353 5.42235 10.9137 -30.631 -1.01932 1.72084 -26.9953 0 0 -0 0 0 -30.0883 -1.00297 0.623319 -113.736 0 0 -53.6264 0 0 -0 0 0 -33.4856 -1.10377 5.30796 -112.298 0 0 -51.0042 0 0 -0 0 0 -32.4356 -1.07301 0.579261 -104.256 0 0 -43.8983 0 0 -0 0 0 -5.9451 -0.207234 4.02741 -97.3421 0 0 -38.5857 0 0 -0 0 0 19.6424 9.40504e-016 10.1675 49.5719 4.25326 0.952726 3.18458e-016 2.59871 -7.22305e-018 -36.1257 41.5648 47.7297 -7.43686e-006 0.571682 -2.70892e-006 16.4879 -0.217404 -1.5015 11.331 5.42212 -10.9131 29.2193 -0.97661 -1.74543 24.8369 0 0 0 0 -0 29.7912 -0.993986 -0.605762 112.622 0 0 52.9584 0 0 0 0 -0 33.0111 -1.08992 -3.26718 111.073 0 0 51.0729 0 0 0 0 -0 32.4514 -1.07348 1.33472 102.94 0 0 43.1189 0 0 0 0 -0 5.87599 -0.204834 -2.10028 96.0519 0 0 38.4021 0 0 0 0 -0 -2.95007 -1.07747 1.01206 6.0875 -7.091 -0.849777 
-28.5681 97.3588 142.897 0.284952 2.23945 0.148125 -0.0288625 -17.2185 -0.481177 5.03128e-022 1.87888e-018 -0.0306854 -4.16179e-009 33.1491 0.270042 8.762e-021 7.84081e-018 -0.128054 1.96896 -14.849 0.256603 -4.29059e-007 -1.04696e-007 -7.84019e-016 -3.73403 -14.4153 -3.44092 4.84659e-020 1.84407e-017 -0.30117 -3.52277e-007 29.5178 5.10202 3.46335e-023 4.92956e-019 -0.00805084 1.35795 -15.4552 0.179645 0.00291259 9.13908e-008 -4.64579e-012 0.150178 -0.539528 0.242232 -0.186278 0.0691831 0.18955 -0.185031 0.0698065 0.190595 -0.183776 0.070423 0.191634 -13.2456 0 -6.59793 -51.7732 9.62543 -4.07685 -0 1.30085 0 40.9929 42.6294 -52.0712 -0 0.556568 0 -14.0256 0.727766 -5.91106 -11.3353 5.42235 10.9137 -30.7242 -1.02212 1.71918 -27.6287 0 0 -0 0 0 -30.3034 -1.00946 0.63595 -114.543 0 0 -54.1104 0 0 -0 0 0 -33.7702 -1.11204 5.34217 -113.125 0 0 -51.0602 0 0 -0 0 0 -32.7109 -1.08111 0.542919 -105.015 0 0 -44.139 0 0 -0 0 0 -5.9451 -0.207234 3.97565 -98.0796 0 0 -38.8662 0 0 -0 0 0 18.9366 9.83688e-016 10.2705 50.0851 3.76319 0.190333 3.12304e-016 2.54855 -6.94688e-018 -35.9684 42.0878 47.2739 -7.43871e-006 0.532519 -2.7089e-006 16.2545 -0.275006 -1.9255 11.331 5.42212 -10.9131 29.2193 -0.97661 -1.74543 24.8369 0 0 0 0 -0 29.7912 -0.993986 -0.605762 112.622 0 0 52.9584 0 0 0 0 -0 33.0111 -1.08992 -3.26718 111.073 0 0 51.0729 0 0 0 0 -0 32.4514 -1.07348 1.33472 102.94 0 0 43.1189 0 0 0 0 -0 5.87599 -0.204834 -2.10028 96.0519 0 0 38.4021 0 0 0 0 -0 -3.80047 -0.945976 1.40341 7.06693 -6.75218 -0.89566 
-28.5289 97.4765 143.038 0.287878 2.07989 0.378672 -0.0680443 -16.4952 -0.588948 1.20065e-021 2.92242e-018 -0.0477283 0.000426223 32.2516 0.188726 8.34909e-021 7.6527e-018 -0.124982 1.69624 -14.7597 0.219685 -4.29059e-007 -1.04696e-007 -7.84019e-016 -3.72606 -14.0256 -3.39813 4.65911e-020 1.80797e-017 -0.295275 -1.14747e-005 29.3005 4.82872 4.83378e-024 4.19302e-020 -0.000684795 1.3001 -15.372 0.17085 0.00291259 9.13907e-008 -4.64579e-012 0.106096 -0.59376 0.231372 -0.180688 0.064651 0.183092 -0.179385 0.0651727 0.184241 -0.178074 0.0656872 0.185382 -12.8901 0 -6.69717 -52.5157 9.36931 -3.42342 -0 1.2883 0 39.7987 42.0488 -51.2038 -0 0.565275 0 -14.2479 0.638436 -5.10264 -11.3353 5.42235 10.9137 -30.8384 -1.02554 1.71714 -28.4267 0 0 -0 0 0 -30.567 -1.0174 0.651374 -115.533 0 0 -54.7033 0 0 -0 0 0 -34.1188 -1.12213 5.38391 -114.138 0 0 -51.1288 0 0 -0 0 0 -33.0481 -1.091 0.4984 -105.944 0 0 -44.4323 0 0 -0 0 0 -5.9451 -0.207234 3.91224 -98.983 0 0 -39.2099 0 0 -0 0 0 18.5761 9.65115e-016 10.0398 50.3743 3.23959 -0.326082 3.06842e-016 2.50404 -6.70641e-018 -36.092 42.8298 46.9991 -7.43888e-006 0.528846 -2.7089e-006 16.5214 -0.321386 -2.21422 11.331 5.42212 -10.9131 29.2193 -0.97661 -1.74543 24.8369 0 0 0 0 -0 29.7912 -0.993986 -0.605762 112.622 0 0 52.9584 0 0 0 0 -0 33.0111 -1.08992 -3.26718 111.073 0 0 51.0729 0 0 0 0 -0 32.4514 -1.07348 1.33472 102.94 0 0 43.1189 0 0 0 0 -0 5.87599 -0.204834 -2.10028 96.0519 0 0 38.4021 0 0 0 0 -0 -3.51279 -1.02163 1.50456 6.94214 -6.02864 -0.729862 
-28.4638 97.504 143.079 0.276866 2.25526 0.875431 -0.0838189 -16.5121 -0.54917 7.06792e-022 2.23211e-018 -0.0364544 3.00129e-006 31.8945 -0.358595 7.49607e-021 7.263e-018 -0.118618 1.90606 -14.7117 0.24608 -4.29059e-007 -1.04696e-007 -7.84019e-016 -3.76001 -14.0424 -3.46139 4.93019e-020 1.86039e-017 -0.303837 -2.36827e-005 29.1669 4.4009 -9.30445e-024 -3.40275e-019 0.00555729 1.49209 -15.4008 0.197121 0.00291259 9.13907e-008 -4.64578e-012 0.0977609 -0.79561 0.209928 -0.198851 -0.0123774 0.162069 -0.197509 -0.0118862 0.163829 -0.19615 -0.0114034 0.165578 -12.2555 0 -6.83302 -53.4838 9.32628 -2.88669 -0 1.26416 0 38.9833 41.7959 -50.5277 -0 0.539582 0 -13.7431 0.571636 -4.74502 -11.3353 5.42235 10.9137 -30.9713 -1.02952 1.71476 -29.3856 0 0 -0 0 0 -30.8732 -1.02659 0.669227 -116.682 0 0 -55.392 0 0 -0 0 0 -34.5238 -1.13381 5.43218 -115.315 0 0 -51.2083 0 0 -0 0 0 -33.4399 -1.10244 0.44667 -107.024 0 0 -44.771 0 0 -0 0 0 -5.9451 -0.207234 3.83858 -100.033 0 0 -39.6089 0 0 -0 0 0 18.1153 8.79929e-016 9.31115 50.7498 2.88653 -0.384632 2.9592e-016 2.41502 -6.23788e-018 -35.1274 42.746 46.0269 -7.43934e-006 0.519224 -2.70889e-006 16.85 -0.320114 -2.16114 11.331 5.42212 -10.9131 29.2193 -0.97661 -1.74543 24.8369 0 0 0 0 -0 29.7912 -0.993986 -0.605762 112.622 0 0 52.9584 0 0 0 0 -0 33.0111 -1.08992 -3.26718 111.073 0 0 51.0729 0 0 0 0 -0 32.4514 -1.07348 1.33472 102.94 0 0 43.1189 0 0 0 0 -0 5.87599 -0.204834 -2.10028 96.0519 0 0 38.4021 0 0 0 0 -0 -3.27549 -1.65209 1.41523 6.91931 -4.65006 -0.811132 
